<svg fill="#FFFFFF" xmlns="http://www.w3.org/2000/svg" data-name="Layer 1" viewBox="0 0 100 100" x="0px" y="0px"><title>Voice_Assistant_02</title><path d="M57.0161,76.6813v7.0093a5.17,5.17,0,0,1-5.1642,5.1643h-26.01a5.17,5.17,0,0,1-5.1642-5.1643V16.3094a5.17,5.17,0,0,1,5.1643-5.1643h26.01a5.17,5.17,0,0,1,5.1644,5.1643V23.392c.62-.0432,1.244-.0733,1.875-.0733s1.2548.03,1.875.0733V16.3094a8.9246,8.9246,0,0,0-8.9144-8.9143h-26.01a8.9245,8.9245,0,0,0-8.9143,8.9143V83.6906a8.9245,8.9245,0,0,0,8.9142,8.9143h26.01a8.9245,8.9245,0,0,0,8.9142-8.9143V76.6813h-3.75Z"></path><path d="M58.8912,25.8187a24.1814,24.1814,0,0,0-17.0988,41.28L34.71,74.1813H58.8912a24.1813,24.1813,0,0,0,0-48.3626ZM45.1286,51.8978A1.8978,1.8978,0,1,1,47.0264,50,1.8979,1.8979,0,0,1,45.1286,51.8978Zm8.7791,1.8979A1.8978,1.8978,0,0,1,52.01,55.6935h0a1.8978,1.8978,0,0,1-1.8978-1.8978V46.2042A1.8978,1.8978,0,0,1,52.01,44.3064h0a1.8978,1.8978,0,0,1,1.8978,1.8978Zm6.8812,3.7957a1.8978,1.8978,0,0,1-3.7956,0V42.4086a1.8978,1.8978,0,1,1,3.7956,0ZM67.67,53.7957a1.8979,1.8979,0,0,1-3.7957,0V46.2042a1.8979,1.8979,0,0,1,3.7957,0Zm4.9834-1.8979A1.8978,1.8978,0,1,1,74.5515,50,1.8979,1.8979,0,0,1,72.6536,51.8978Z"></path><rect x="24.5636" y="80.2369" width="12.3701" height="4.7577"></rect><rect x="41.2156" y="80.2369" width="12.37" height="4.7577"></rect></svg>